<?xml version="1.0" encoding="UTF-8"?>
<svg width="1000" height="1260" xmlns="http://www.w3.org/2000/svg" xmlns:xlink="http://www.w3.org/1999/xlink">

  <!-- 배경 -->
  <rect width="1000" height="1260" fill="#ffffff"/>

  <!-- 상단 빨간 바 -->
  <rect width="1000" height="14" fill="#C0392B"/>

  <!-- 브랜드명 THE STEPPER -->
  <text x="500" y="96" text-anchor="middle"
        font-family="'Arial Black', 'Impact', sans-serif"
        font-size="58" font-weight="900" fill="#C9A84C" letter-spacing="7">THE STEPPER</text>

  <!-- 부제 -->
  <text x="500" y="140" text-anchor="middle"
        font-family="'Arial', 'Noto Sans KR', sans-serif"
        font-size="22" fill="#6e6e73" letter-spacing="3">VR 버추얼 태권도 체험</text>

  <!-- 구분선 -->
  <rect x="60" y="162" width="880" height="1.5" fill="#e5e5e7"/>

  <!-- QR 코드 (중앙 임베드) -->
  <svg x="90" y="195" width="820" height="820" viewBox="0 0 47 47">
    <path fill="#ffffff" d="M0 0h47v47H0z"/><path stroke="#1d1d1f" d="M3 3.5h7m2 0h5m2 0h2m1 0h2m2 0h1m1 0h1m3 0h1m4 0h7M3 4.5h1m5 0h1m7 0h3m1 0h2m2 0h1m2 0h2m1 0h1m1 0h3m1 0h1m5 0h1M3 5.5h1m1 0h3m1 0h1m1 0h5m3 0h1m2 0h3m1 0h1m1 0h2m1 0h1m2 0h1m2 0h1m1 0h3m1 0h1M3 6.5h1m1 0h3m1 0h1m1 0h2m2 0h1m1 0h2m1 0h2m2 0h2m1 0h1m1 0h1m1 0h2m1 0h2m1 0h1m1 0h3m1 0h1M3 7.5h1m1 0h3m1 0h1m2 0h1m1 0h3m9 0h2m4 0h1m1 0h1m2 0h1m1 0h3m1 0h1M3 8.5h1m5 0h1m3 0h2m3 0h2m2 0h1m1 0h2m2 0h2m1 0h1m5 0h1m5 0h1M3 9.5h7m1 0h1m1 0h1m1 0h1m1 0h1m1 0h1m1 0h1m1 0h1m1 0h1m1 0h1m1 0h1m1 0h1m1 0h1m1 0h1m1 0h7M14 10.5h1m1 0h1m2 0h1m1 0h1m2 0h1m4 0h2M6 11.5h2m1 0h2m1 0h1m2 0h3m4 0h1m1 0h9m2 0h1m4 0h2M4 12.5h2m1 0h2m1 0h3m7 0h1m3 0h1m5 0h1m3 0h1m3 0h2m2 0h1M3 13.5h1m1 0h5m4 0h6m1 0h4m1 0h1m3 0h1m2 0h1m2 0h1m2 0h1m1 0h2M3 14.5h1m1 0h1m2 0h1m2 0h2m1 0h1m2 0h1m2 0h4m2 0h2m4 0h1m1 0h3m2 0h2m1 0h1M5 15.5h3m1 0h1m1 0h2m1 0h1m1 0h1m1 0h3m1 0h1m1 0h1m1 0h2m2 0h2m5 0h1m4 0h2M4 16.5h1m2 0h1m4 0h2m2 0h2m1 0h2m2 0h2m3 0h1m2 0h1m1 0h1m3 0h5m1 0h1M3 17.5h2m1 0h4m4 0h6m4 0h2m1 0h1m1 0h1m1 0h1m2 0h4m1 0h1m1 0h1m1 0h1M5 18.5h1m2 0h1m1 0h3m1 0h2m2 0h1m3 0h2m1 0h1m1 0h1m1 0h2m2 0h2m1 0h1m2 0h3M3 19.5h5m1 0h1m4 0h2m2 0h1m1 0h3m1 0h1m1 0h2m3 0h1m2 0h3m3 0h1M7 20.5h2m2 0h1m1 0h6m6 0h1m3 0h2m1 0h5m2 0h1m1 0h2M5 21.5h9m2 0h2m1 0h2m4 0h3m1 0h2m2 0h7m1 0h1m1 0h1M3 22.5h3m8 0h2m2 0h1m2 0h1m3 0h7m1 0h1m5 0h1m1 0h2M6 23.5h2m1 0h2m1 0h2m3 0h1m1 0h1m2 0h1m1 0h2m2 0h2m3 0h1m3 0h2m2 0h1m1 0h1M4 24.5h3m4 0h6m3 0h1m3 0h1m3 0h1m1 0h1m2 0h3m2 0h3M5 25.5h1m1 0h1m1 0h2m1 0h1m3 0h1m3 0h2m1 0h3m1 0h1m1 0h3m3 0h2m1 0h4M4 26.5h1m2 0h2m1 0h1m1 0h2m3 0h1m2 0h1m3 0h3m1 0h1m1 0h3m1 0h1m1 0h2m2 0h1M4 27.5h1m2 0h3m5 0h2m1 0h3m13 0h2m1 0h1m5 0h1M3 28.5h3m5 0h1m1 0h1m1 0h1m2 0h7m4 0h4m2 0h1m1 0h3m1 0h1m1 0h1M3 29.5h2m2 0h1m1 0h5m3 0h1m4 0h2m2 0h1m1 0h5m1 0h4m1 0h2m2 0h1M4 30.5h3m8 0h1m1 0h1m3 0h1m1 0h1m1 0h2m2 0h2m3 0h1m1 0h6M3 31.5h1m1 0h1m1 0h3m1 0h2m2 0h3m1 0h3m2 0h4m1 0h1m1 0h1m1 0h2m5 0h1m1 0h1M3 32.5h1m1 0h3m2 0h2m2 0h4m1 0h1m2 0h1m1 0h2m2 0h1m2 0h1m1 0h1m1 0h1m3 0h2m1 0h1M3 33.5h2m1 0h1m1 0h6m4 0h2m6 0h3m1 0h1m1 0h1m1 0h3m2 0h3m1 0h1M3 34.5h4m3 0h2m1 0h2m1 0h3m1 0h1m2 0h5m1 0h1m7 0h3m1 0h3M3 35.5h4m2 0h2m2 0h6m2 0h3m1 0h1m1 0h2m1 0h1m1 0h1m2 0h7M11 36.5h5m2 0h3m1 0h1m1 0h5m1 0h4m1 0h1m3 0h1m1 0h1M3 37.5h7m1 0h3m4 0h1m1 0h1m1 0h2m1 0h1m1 0h2m1 0h1m3 0h2m1 0h1m1 0h1M3 38.5h1m5 0h1m3 0h1m3 0h1m1 0h1m6 0h4m3 0h1m1 0h1m3 0h2m2 0h1M3 39.5h1m1 0h3m1 0h1m1 0h2m1 0h3m1 0h2m3 0h1m3 0h3m1 0h2m1 0h6m2 0h1M3 40.5h1m1 0h3m1 0h1m1 0h1m1 0h1m3 0h2m1 0h3m2 0h3m2 0h2m1 0h3m2 0h1m2 0h3M3 41.5h1m1 0h3m1 0h1m3 0h2m2 0h1m2 0h1m3 0h2m1 0h2m1 0h3m2 0h2m1 0h2m2 0h2M3 42.5h1m5 0h1m6 0h1m1 0h3m2 0h1m2 0h2m1 0h2m3 0h1m1 0h2m1 0h3m1 0h1M3 43.5h7m6 0h1m1 0h2m2 0h2m4 0h2m3 0h3m3 0h1"/>
  </svg>

  <!-- QR 코드 테두리 강조 -->
  <rect x="86" y="191" width="828" height="828"
        fill="none" stroke="#C0392B" stroke-width="3" rx="8"/>

  <!-- 구분선 -->
  <rect x="60" y="1037" width="880" height="1.5" fill="#e5e5e7"/>

  <!-- 안내 텍스트 -->
  <text x="500" y="1087" text-anchor="middle"
        font-family="'Arial', 'Noto Sans KR', sans-serif"
        font-size="30" font-weight="700" fill="#1d1d1f">스캔하고 AI 겨루기 코치 무료 체험!</text>

  <!-- URL 텍스트 -->
  <text x="500" y="1131" text-anchor="middle"
        font-family="'Arial', monospace"
        font-size="18" fill="#6e6e73">www.thestepper.co.kr</text>

  <!-- 무료 뱃지 -->
  <rect x="340" y="1155" width="320" height="46" rx="23" fill="#C0392B"/>
  <text x="500" y="1185" text-anchor="middle"
        font-family="'Arial', 'Noto Sans KR', sans-serif"
        font-size="18" font-weight="700" fill="#ffffff" letter-spacing="1">🤖 AI 코치 하루 5회 영구 무료</text>

  <!-- 하단 빨간 바 -->
  <rect y="1246" width="1000" height="14" fill="#C0392B"/>

</svg>